<svg xmlns="http://www.w3.org/2000/svg" xmlns:xlink="http://www.w3.org/1999/xlink">
    <!-- пример записи -->
    <symbol id="" viewBox=""></symbol>

    <!-- youtube -->
    <symbol id="youtube" viewBox="0 0 16 16">
        <path d="M10.6389 7.68724L7.31655 5.27215C7.19462 5.18377 7.03277 5.17045 6.89913 5.23914C6.76442 5.30729 6.6803 5.44572 6.6803 5.59533V10.4239C6.6803 10.5751 6.76442 10.713 6.89913 10.7812C6.9561 10.8099 7.01839 10.8243 7.08122 10.8243C7.16321 10.8243 7.24627 10.7982 7.31655 10.7466L10.6389 8.33361C10.7438 8.25641 10.805 8.13714 10.805 8.01043C10.8056 7.88158 10.7427 7.76285 10.6389 7.68724Z"/>
        <path d="M8.00027 0.00201416C3.58111 0.00201416 0 3.58313 0 8.00228C0 12.4198 3.58111 15.9999 8.00027 15.9999C12.4184 15.9999 16 12.4193 16 8.00228C16.0005 3.58313 12.4184 0.00201416 8.00027 0.00201416ZM8.00027 14.6651C4.32012 14.6651 1.33639 11.683 1.33639 8.00228C1.33639 4.3232 4.32012 1.33734 8.00027 1.33734C11.6799 1.33734 14.6631 4.32267 14.6631 8.00228C14.6636 11.683 11.6799 14.6651 8.00027 14.6651Z"/>
    </symbol>
</svg>
